<svg width="252" height="252" viewBox="0 0 252 252" fill="none" xmlns="http://www.w3.org/2000/svg">
<g clip-path="url(#clip0_23_77)">
<path d="M3.69096 114.607L137.346 248.262C129.826 253.796 119.185 253.228 112.232 246.276L5.67733 139.579C-1.13311 132.768 -1.84253 122.127 3.69096 114.607Z" fill="white"/>
<path d="M19.7266 98.2573L9.39008 108.588L143.288 242.562L153.624 232.231L19.7266 98.2573Z" fill="white"/>
<path d="M35.7906 82.2612L25.457 92.5948L159.393 226.531L169.726 216.197L35.7906 82.2612Z" fill="white"/>
<path d="M51.8549 66.0615L41.5242 76.3981L175.498 210.296L185.829 199.959L51.8549 66.0615Z" fill="white"/>
<path d="M246.171 139.579L191.546 194.204L57.607 60.4072L112.232 5.6399C119.752 -1.87997 131.954 -1.87997 139.474 5.6399L246.171 112.337C253.833 119.857 253.833 132.059 246.171 139.579Z" fill="white"/>
</g>
<defs>
<clipPath id="clip0_23_77">
<rect width="252" height="252" fill="white"/>
</clipPath>
</defs>
</svg>
