<svg width="838" height="180" viewBox="0 0 838 180" fill="none" xmlns="http://www.w3.org/2000/svg">
<path d="M257.8 113.9H295.7C296.6 113.9 297.3 114.2 298 114.9C298.6 115.5 299 116.3 299 117.2V129.9C299 130.8 298.7 131.5 298 132.2C297.4 132.8 296.6 133.2 295.7 133.2H238.8C237.9 133.2 237.2 132.9 236.5 132.2C235.9 131.6 235.5 130.8 235.5 129.9V52.2999C235.5 51.3999 235.8 50.6999 236.5 49.9999C237.1 49.3999 237.9 48.9999 238.8 48.9999H294.7C295.6 48.9999 296.3 49.2999 297 49.9999C297.6 50.5999 298 51.3999 298 52.2999V64.9999C298 65.8999 297.7 66.5999 297 67.2999C296.4 67.8999 295.6 68.2999 294.7 68.2999H257.7V81.2999H292C292.9 81.2999 293.6 81.5999 294.3 82.2999C294.9 82.8999 295.3 83.6999 295.3 84.5999V97.2999C295.3 98.1999 295 98.8999 294.3 99.5999C293.7 100.2 292.9 100.6 292 100.6H257.7V113.9H257.8Z" fill="black"/>
<path d="M338 132.1C337.4 132.7 336.6 133.1 335.7 133.1H320.6C319.7 133.1 319 132.8 318.3 132.1C317.7 131.5 317.3 130.7 317.3 129.8V51.0999C317.3 50.1999 317.6 49.4999 318.3 48.7999C318.9 48.1999 319.7 47.7999 320.6 47.7999H335.7C336.6 47.7999 337.3 48.0999 338 48.7999C338.6 49.3999 339 50.1999 339 51.0999V129.8C338.9 130.7 338.6 131.5 338 132.1Z" fill="black"/>
<path d="M380.8 114.7C383 116.1 385.5 116.9 388.4 116.9C390.6 116.9 392.5 116.7 393.9 116.2C395.3 115.7 396.6 115 397.6 114.2C398.5 113.5 399.1 113 399.5 112.8C399.9 112.6 400.6 112.5 401.5 112.5H417.1C417.9 112.5 418.5 112.7 419 113.2C419.5 113.7 419.7 114.3 419.7 115.1C419.7 116.7 418.5 119 416.1 121.9C413.7 124.8 410.1 127.4 405.4 129.7C400.7 132 395 133.1 388.2 133.1C377.9 133.1 369.9 130.2 364.3 124.5C358.7 118.8 355.8 110.8 355.8 100.7C355.8 94.3999 357.1 88.7999 359.6 83.8999C362.1 78.9999 365.8 75.1999 370.7 72.3999C375.6 69.5999 381.4 68.2999 388.2 68.2999C395.6 68.2999 401.8 69.8999 406.6 72.9999C411.4 76.1999 415 80.1999 417.2 85.1999C419.4 90.1999 420.6 95.3999 420.6 100.9V104.3C420.6 105.2 420.3 105.9 419.6 106.6C419 107.2 418.2 107.6 417.3 107.6H377.3C377.6 110.9 378.6 113.3 380.8 114.7ZM399.2 94.1999C398.9 91.4999 397.8 89.1999 395.9 87.2999C394 85.3999 391.5 84.4999 388.4 84.4999C385.3 84.4999 382.8 85.3999 380.9 87.2999C379 89.1999 377.9 91.4999 377.6 94.1999H399.2Z" fill="black"/>
<path d="M535.1 132.1C534.5 132.7 533.7 133.1 532.8 133.1H518.3C517.4 133.1 516.7 132.8 516 132.1C515.4 131.5 515 130.7 515 129.8V99.0999C515 95.2999 514.3 92.4999 512.8 90.6999C511.4 88.8999 509.2 88.0999 506.2 88.0999C503.3 88.0999 501.2 88.9999 499.7 90.6999C498.3 92.4999 497.5 95.2999 497.5 99.0999V129.8C497.5 130.7 497.2 131.4 496.5 132.1C495.9 132.7 495.1 133.1 494.2 133.1H479.7C478.8 133.1 478.1 132.8 477.4 132.1C476.8 131.5 476.4 130.7 476.4 129.8V99.0999C476.4 95.2999 475.7 92.4999 474.2 90.6999C472.8 88.8999 470.6 88.0999 467.6 88.0999C461.8 88.0999 459 91.6999 459 98.7999V129.9C459 130.8 458.7 131.5 458 132.2C457.4 132.8 456.6 133.2 455.7 133.2H440.6C439.7 133.2 439 132.9 438.3 132.2C437.7 131.6 437.3 130.8 437.3 129.9V73.8999C437.3 72.9999 437.6 72.2999 438.3 71.5999C438.9 70.9999 439.7 70.5999 440.6 70.5999H455.1C456 70.5999 456.7 70.8999 457.4 71.5999C458 72.1999 458.4 72.9999 458.4 73.8999V76.6999C462.2 71.8999 467.2 69.4999 473.6 69.4999C477.8 69.4999 481.5 70.2999 484.8 71.7999C488.1 73.3999 490.8 75.6999 492.8 78.7999C495.1 75.7999 497.9 73.3999 501.3 71.7999C504.6 70.1999 508.2 69.3999 512 69.3999C519.3 69.3999 525.1 71.6999 529.3 76.1999C533.6 80.7999 535.7 87.5999 535.7 96.6999V129.7C536.1 130.7 535.8 131.5 535.1 132.1Z" fill="black"/>
<path d="M577.4 114.7C579.6 116.1 582.1 116.9 585 116.9C587.2 116.9 589.1 116.7 590.5 116.2C591.9 115.7 593.2 115 594.2 114.2C595.1 113.5 595.7 113 596.1 112.8C596.5 112.6 597.2 112.5 598.1 112.5H613.7C614.5 112.5 615.1 112.7 615.6 113.2C616.1 113.7 616.3 114.3 616.3 115.1C616.3 116.7 615.1 119 612.7 121.9C610.3 124.8 606.7 127.4 602 129.7C597.3 132 591.6 133.1 584.8 133.1C574.5 133.1 566.5 130.2 560.9 124.5C555.3 118.8 552.4 110.8 552.4 100.7C552.4 94.3999 553.7 88.7999 556.2 83.8999C558.7 78.9999 562.4 75.1999 567.3 72.3999C572.2 69.5999 578 68.2999 584.8 68.2999C592.2 68.2999 598.4 69.8999 603.2 72.9999C608 76.1999 611.6 80.1999 613.8 85.1999C616 90.1999 617.2 95.3999 617.2 100.9V104.3C617.2 105.2 616.9 105.9 616.2 106.6C615.6 107.2 614.8 107.6 613.9 107.6H573.9C574.1 110.9 575.2 113.3 577.4 114.7ZM595.7 94.1999C595.4 91.4999 594.3 89.1999 592.4 87.2999C590.5 85.3999 588 84.4999 584.9 84.4999C581.8 84.4999 579.3 85.3999 577.4 87.2999C575.5 89.1999 574.4 91.4999 574.1 94.1999H595.7Z" fill="black"/>
<path d="M696.8 132.1C696.2 132.7 695.4 133.1 694.5 133.1H679.4C678.5 133.1 677.8 132.8 677.1 132.1C676.5 131.5 676.1 130.7 676.1 129.8V99.4999C676.1 95.9999 675.2 93.1999 673.5 91.1999C671.8 89.1999 669.2 88.0999 665.6 88.0999C662.2 88.0999 659.6 89.0999 657.9 91.0999C656.2 93.0999 655.3 95.8999 655.3 99.4999V129.9C655.3 130.8 655 131.5 654.3 132.2C653.7 132.8 652.9 133.2 652 133.2H637C636.1 133.2 635.4 132.9 634.7 132.2C634.1 131.6 633.7 130.8 633.7 129.9V73.8999C633.7 72.9999 634 72.2999 634.7 71.5999C635.3 70.9999 636.1 70.5999 637 70.5999H651.5C652.4 70.5999 653.1 70.8999 653.8 71.5999C654.4 72.1999 654.8 72.9999 654.8 73.8999V76.6999C658.6 71.8999 664.2 69.4999 671.7 69.4999C679.8 69.4999 686.1 71.7999 690.8 76.2999C695.4 80.8999 697.8 87.6999 697.8 96.7999V129.8C697.7 130.7 697.4 131.5 696.8 132.1Z" fill="black"/>
<path d="M750.9 114.5H760.5C761.4 114.5 762.1 114.8 762.8 115.5C763.4 116.1 763.8 116.9 763.8 117.8V129.9C763.8 130.8 763.5 131.5 762.8 132.2C762.2 132.8 761.4 133.2 760.5 133.2H749.1C741.5 133.2 735.4 131.1 730.9 126.8C726.4 122.6 724.1 116.8 724.1 109.5V89.2999H715.2C714.3 89.2999 713.6 88.9999 712.9 88.2999C712.3 87.6999 711.9 86.8999 711.9 85.9999V73.8999C711.9 72.9999 712.2 72.2999 712.9 71.5999C713.5 70.9999 714.3 70.5999 715.2 70.5999H724.1V51.0999C724.1 50.1999 724.4 49.4999 725.1 48.7999C725.7 48.1999 726.5 47.7999 727.4 47.7999H742.5C743.4 47.7999 744.1 48.0999 744.8 48.7999C745.4 49.3999 745.8 50.1999 745.8 51.0999V70.6999H759.4C760.3 70.6999 761 70.9999 761.7 71.6999C762.3 72.2999 762.7 73.0999 762.7 73.9999V86.0999C762.7 86.9999 762.4 87.6999 761.7 88.3999C761.1 88.9999 760.3 89.3999 759.4 89.3999H745.8V108.8C745.7 112.6 747.4 114.5 750.9 114.5Z" fill="black"/>
<path d="M782.7 100.8C779.4 97.3999 777.8 92.9999 777.8 87.6999C777.8 84.0999 779 80.7999 781.3 77.8999C783.7 74.9999 787 72.6999 791.3 70.8999C795.6 69.1999 800.4 68.2999 805.9 68.2999C811.3 68.2999 816.1 69.0999 820.5 70.7999C824.9 72.3999 828.3 74.4999 830.9 77.0999C833.5 79.6999 834.9 82.2999 835.1 85.0999C835.2 85.9999 834.9 86.6999 834.2 87.3999C833.5 87.9999 832.7 88.3999 831.9 88.3999H817.6C816.7 88.3999 815.7 87.9999 814.5 87.0999C813.5 86.2999 812.3 85.6999 811.1 85.1999C809.9 84.7999 808.2 84.4999 805.9 84.4999C804 84.4999 802.4 84.7999 801.2 85.2999C800 85.8999 799.4 86.6999 799.4 87.7999C799.4 88.7999 799.6 89.4999 800.1 89.9999C800.5 90.4999 801.3 90.7999 802.5 91.0999C803.7 91.2999 805.7 91.6999 808.6 92.0999L816 93.2999C823 94.3999 828.2 96.7999 831.7 100.4C835.2 104 836.9 108.4 836.9 113.4C836.9 117 835.7 120.3 833.2 123.3C830.8 126.3 827.2 128.7 822.6 130.4C818 132.2 812.6 133 806.3 133C800.3 133 795.1 132.1 790.6 130.4C786.2 128.7 782.8 126.5 780.4 123.9C778 121.3 776.7 118.6 776.5 115.9C776.4 115 776.7 114.3 777.4 113.6C778.1 113 778.9 112.6 779.7 112.6H794.6C795.2 112.6 795.6 112.7 796 112.9C796.4 113.1 796.8 113.4 797.3 113.9C798.3 114.8 799.3 115.5 800.5 116C801.7 116.5 803.6 116.8 806.3 116.8C808.8 116.8 810.9 116.5 812.6 115.8C814.3 115.1 815.2 114.2 815.2 113.1C815.2 111.8 814.6 111 813.3 110.5C812.1 110.1 809.4 109.5 805.3 108.9L796.7 107.5C790.6 106.4 786 104.2 782.7 100.8Z" fill="black"/>
<path d="M5.79999 82.5L100 176.7C94.7 180.6 87.2 180.2 82.3 175.3L7.19999 100.1C2.39999 95.3 1.89999 87.8 5.79999 82.5Z" fill="#4E62EE"/>
<path d="M17.1019 70.9767L9.81674 78.2578L104.188 172.682L111.473 165.401L17.1019 70.9767Z" fill="#4E62EE"/>
<path d="M28.4238 59.7027L21.1407 66.9858L115.539 161.384L122.822 154.101L28.4238 59.7027Z" fill="#4E62EE"/>
<path d="M39.746 48.2851L32.4649 55.5703L126.889 149.941L134.171 142.656L39.746 48.2851Z" fill="#4E62EE"/>
<path d="M176.7 100.1L138.2 138.6L43.8 44.3L82.3 5.69998C87.6 0.399976 96.2 0.399976 101.5 5.69998L176.7 80.9C182.1 86.2 182.1 94.8 176.7 100.1Z" fill="#4E62EE"/>
</svg>
